<svg xmlns="http://www.w3.org/2000/svg" viewBox="0 0 512 512"><path d="M510.957 349.086L428.141 39.432c-3.584-13.383-15.3-22.375-29.159-22.375-13.856 0-25.574 8.992-29.158 22.378L301.872 293.5a74.054 74.054 0 0 0-16.778-7.05 148.743 148.743 0 0 0 12.009-58.509c0-81.909-66.637-148.545-148.545-148.545C66.642 79.396 0 146.033 0 227.941c0 77.991 60.421 142.134 136.917 148.091v95.638H98.455c-6.426 0-11.636 5.21-11.636 11.636s5.211 11.636 11.636 11.636h320.679c6.426 0 11.636-5.21 11.636-11.636s-5.211-11.636-11.636-11.636h-12.836v-84.602h75.509c9.456 0 18.18-4.302 23.938-11.803 5.757-7.501 7.657-17.043 5.212-26.179zM148.553 186.595c-6.426 0-11.636 5.21-11.636 11.636V285.092l-27.949-27.948c-4.545-4.544-11.911-4.544-16.457 0-4.544 4.544-4.544 11.912 0 16.456l44.405 44.405v34.662c-63.643-5.89-113.643-59.575-113.643-124.726 0-69.075 56.203-125.272 125.285-125.272 69.075 0 125.272 56.197 125.272 125.272 0 19.431-4.53 38.593-13.126 55.829-34.981 1.943-63.592 28.097-69.346 61.941a123.992 123.992 0 0 1-31.169 6.965v-39.484-44.716l32.451-32.451c4.544-4.544 4.544-11.912 0-16.456-4.545-4.544-11.911-4.544-16.457 0l-15.994 15.994V198.23c0-6.426-5.211-11.635-11.636-11.635zm105.86 285.076h-94.226v-95.635h.001a147.248 147.248 0 0 0 31.071-5.789c5.205 32.05 30.893 57.304 63.153 61.857v39.567zm10.474-138.579c-5.784 0-10.473 4.688-10.473 10.473v18.433l-4.111-4.111c-4.091-4.09-10.72-4.09-14.812 0-4.09 4.09-4.09 10.72 0 14.811l18.923 18.923v16.885c-23.298-4.849-40.858-25.538-40.858-50.255 0-28.304 23.027-51.331 51.331-51.331.806 0 2.607.071 2.708.072 27.051 1.413 48.623 23.864 48.623 51.259 0 24.716-17.56 45.405-40.858 50.255v-21.219-43.722c0-5.784-4.688-10.473-10.473-10.473zm118.139 138.579H275.36v-39.567c26.361-3.721 48.339-21.257 58.336-45.037h49.331v84.604zm104.259-110.577c-.774 1.009-2.515 2.7-5.477 2.7h-75.509v-28.26-35.432l25.73-25.73c4.544-4.544 4.544-11.912 0-16.457-4.545-4.544-11.911-4.544-16.457 0l-9.274 9.274v-32.388c0-6.427-5.211-11.636-11.636-11.636-6.426 0-11.636 5.21-11.636 11.636v72.635l-18.986-18.987c-4.544-4.544-11.91-4.544-16.457 0-4.544 4.544-4.544 11.912 0 16.456l35.443 35.443v23.446h-43.764c.135-1.833.228-3.677.228-5.545 0-18.46-6.754-35.361-17.901-48.401l70.716-264.397c1.237-4.623 5.082-5.122 6.676-5.122 1.595 0 5.44.499 6.677 5.119L488.474 355.1c.769 2.865-.416 4.985-1.189 5.994zM482.827 471.671h-18.541c-6.426 0-11.636 5.209-11.636 11.636s5.211 11.636 11.636 11.636h18.541c6.426 0 11.636-5.21 11.636-11.636 0-6.427-5.211-11.636-11.636-11.636z" fill="#af8e4d"/><path d="M299.498 109.615a191.578 191.578 0 0 0-8.184-9.726c-4.298-4.779-11.656-5.167-16.433-.87-4.778 4.298-5.166 11.656-.869 16.434a171.111 171.111 0 0 1 7.195 8.55 11.616 11.616 0 0 0 9.153 4.443c2.518 0 5.055-.813 7.187-2.491 5.051-3.974 5.925-11.29 1.951-16.34zM256.85 69.702c-32.096-21.988-69.495-33.607-108.175-33.607h-.127c-6.425.003-11.633 5.218-11.628 11.643.003 6.425 5.212 11.629 11.635 11.629.037.002.079 0 .12 0 33.963 0 66.819 10.211 95.023 29.533a11.573 11.573 0 0 0 6.566 2.037c3.71 0 7.355-1.77 9.61-5.061 3.632-5.3 2.279-12.543-3.024-16.174z" fill="#af8e4d"/></svg>