<svg xmlns="http://www.w3.org/2000/svg" viewBox="0 0 480 480" width="512" height="512"><path d="M352 255.999c0-17.648-14.352-32-32-32s-32 14.352-32 32v16c0 17.648 14.352 32 32 32 6.832 0 13.136-2.192 18.336-5.848 3.84 8.152 12.072 13.848 21.664 13.848 13.232 0 24-10.768 24-24v-32c0-35.288-28.712-64-64-64s-64 28.712-64 64v24c0 35.288 28.712 64 64 64h40c13.232 0 24-10.768 24-24h-16c0 4.408-3.584 8-8 8h-40c-26.472 0-48-21.528-48-48v-24c0-26.472 21.528-48 48-48s48 21.528 48 48v32c0 4.408-3.584 8-8 8s-8-3.592-8-8v-32zm-16 16c0 8.824-7.176 16-16 16s-16-7.176-16-16v-16c0-8.824 7.176-16 16-16s16 7.176 16 16v16zM246.552 444.287a204.653 204.653 0 0 1-15.2 2.368l1.84 15.888c5.48-.64 11-1.496 16.424-2.552l-3.064-15.704zM215.992 447.847a209.9 209.9 0 0 1-15.384.016l-.592 15.992a220.135 220.135 0 0 0 16.616-.024l-.64-15.984zM140.464 436.279l-5.4 15.064a210.034 210.034 0 0 0 15.832 5l4.216-15.432a198 198 0 0 1-14.648-4.632zM170.096 444.407l-3.024 15.712c5.4 1.04 10.92 1.88 16.416 2.504l1.8-15.896a197.095 197.095 0 0 1-15.192-2.32zM112.432 423.711l-7.648 14.04a215.954 215.954 0 0 0 14.872 7.392l6.56-14.592a204.232 204.232 0 0 1-13.784-6.84zM63.752 386.455l-11.544 11.088a218.724 218.724 0 0 0 11.952 11.528l10.656-11.936a198.264 198.264 0 0 1-11.064-10.68zM86.68 406.951l-9.736 12.704a219.97 219.97 0 0 0 13.568 9.584l8.72-13.416a198.945 198.945 0 0 1-12.552-8.872zM276.176 436.063c-4.8 1.744-9.728 3.32-14.656 4.688l4.28 15.416a212.887 212.887 0 0 0 15.832-5.064l-5.456-15.04zM329.872 406.527a200.262 200.262 0 0 1-12.52 8.912l8.768 13.384c4.648-3.04 9.2-6.288 13.536-9.632l-9.784-12.664zM352.256 386.447a204.721 204.721 0 0 1-10.56 10.216l10.704 11.888a220.265 220.265 0 0 0 11.384-11.008l-11.528-11.096zM304.16 423.359a195.18 195.18 0 0 1-13.752 6.896l6.624 14.568c5.04-2.296 10.04-4.8 14.848-7.448l-7.72-14.016zM182.808 17.455c-5.48.64-11 1.496-16.424 2.552l3.064 15.704a204.653 204.653 0 0 1 15.2-2.368l-1.84-15.888zM199.368 16.167l.64 15.984a201.33 201.33 0 0 1 15.384-.016l.592-15.992c-5.504-.2-11.088-.184-16.616.024zM150.2 23.831a212.887 212.887 0 0 0-15.832 5.064l5.456 15.04c4.8-1.744 9.728-3.32 14.656-4.688l-4.28-15.416zM118.968 35.175c-5.04 2.296-10.04 4.8-14.848 7.448l7.72 14.016a195.18 195.18 0 0 1 13.752-6.896l-6.624-14.568zM265.104 23.655l-4.224 15.424a198 198 0 0 1 14.648 4.632l5.408-15.056a210.034 210.034 0 0 0-15.832-5zM232.512 17.375l-1.792 15.904c5.08.576 10.192 1.352 15.192 2.32l3.016-15.72c-5.4-1.04-10.92-1.88-16.416-2.504zM89.88 51.175c-4.648 3.04-9.2 6.288-13.536 9.632l9.784 12.664a200.262 200.262 0 0 1 12.52-8.912L89.88 51.175zM325.488 50.759l-8.72 13.416a198.945 198.945 0 0 1 12.552 8.872l9.736-12.704a219.97 219.97 0 0 0-13.568-9.584zM351.84 70.927l-10.656 11.936a198.264 198.264 0 0 1 11.064 10.68l11.544-11.088a218.724 218.724 0 0 0-11.952-11.528zM63.6 71.439a220.265 220.265 0 0 0-11.384 11.008l11.528 11.096c3.4-3.528 6.952-6.96 10.56-10.208L63.6 71.439zM296.344 34.855l-6.56 14.592a204.232 204.232 0 0 1 13.784 6.84l7.648-14.04a215.954 215.954 0 0 0-14.872-7.392z" fill="#ffd684"/><path d="M480 119.999v-16H8c-4.424 0-8 3.584-8 8v224c0 22.056 17.944 40 40 40h336c22.056 0 40-17.944 40-40v-152h16v-16h-16v-16h40v-16h-40v-16h64zm-104.72 0L208 206.983 40.72 119.999h334.56zm24.72 216c0 13.232-10.768 24-24 24H40c-13.232 0-24-10.768-24-24V125.175l188.312 97.92c1.16.6 2.424.904 3.688.904a8.025 8.025 0 0 0 3.688-.904L400 125.175v210.824z" fill="#ffd684"/><path fill="#ffd684" d="M32 327.999h16v16H32zM64 327.999h16v16H64zM96 327.999h16v16H96z"/></svg>