<svg id="Objects" xmlns="http://www.w3.org/2000/svg" xmlns:xlink="http://www.w3.org/1999/xlink" viewBox="0 0 800 800"><style>.st0{stroke-linecap:round;stroke-linejoin:round}.st0,.st1,.st2{fill:none;stroke:#fff;stroke-miterlimit:10}.st2{stroke-linejoin:round}.st3{opacity:.1}.st4{clip-path:url(#SVGID_4_)}.st10,.st11,.st12,.st13,.st5,.st6,.st7,.st8,.st9{fill:none;stroke:#fff;stroke-linecap:round;stroke-linejoin:round}.st10,.st11,.st12,.st13,.st6,.st7,.st8,.st9{stroke-dasharray:.985,3.94}.st10,.st11,.st12,.st13,.st7,.st8,.st9{stroke-dasharray:.999,3.9959}.st10,.st11,.st12,.st13,.st8,.st9{stroke-dasharray:1.0207,4.0826}.st10,.st11,.st12,.st13,.st9{stroke-dasharray:.9625,3.8501}.st10,.st11,.st12,.st13{stroke-dasharray:1.0013,4.0054}.st11,.st12,.st13{stroke-dasharray:1.0795,4.3181}.st12,.st13{stroke-dasharray:1.0053,4.0211}.st13{stroke-dasharray:.9964,3.9858}.st14{fill:#fff}.st15,.st16,.st17,.st18,.st19,.st20,.st21,.st22,.st23{fill:none;stroke:#fff;stroke-linecap:round;stroke-linejoin:round}.st15{stroke-miterlimit:10;stroke-dasharray:1,4}.st16,.st17,.st18,.st19,.st20,.st21,.st22,.st23{stroke-dasharray:.9842,3.9368}.st17,.st18,.st19,.st20,.st21,.st22,.st23{stroke-dasharray:1,4}.st18,.st19,.st20,.st21,.st22,.st23{stroke-dasharray:1.0097,4.0388}.st19,.st20,.st21,.st22,.st23{stroke-dasharray:1.0105,4.042}.st20,.st21,.st22,.st23{stroke-dasharray:.9989,3.9956}.st21,.st22,.st23{stroke-dasharray:1.0263,4.1052}.st22,.st23{stroke-dasharray:1.0028,4.0111}.st23{stroke-dasharray:1.0093,4.0371}</style><path class="st0" d="M212.9 569.7h418.7v13.6H212.9zM514.6 233.9l92.3 92.1M607.5 326.6v-12.8l-92.9-92.5"/><path class="st0" d="M615.2 330c0 1.7-1.4 3.1-3.1 3.1h-196c-1.7 0-3.1-1.4-3.1-3.1v-.3c0-1.7 1.4-3.1 3.1-3.1h196.1c1.7 0 3.1 1.4 3.1 3.1v.3z"/><path class="st0" d="M607.5 326.6H624v-5.4L514.6 211.8M514.6 233.9L422.3 326M421.7 326.6v-12.8l92.9-92.5"/><path class="st0" d="M421.7 326.6h-16.4v-5.4l109.3-109.4M439.1 338.6h17.5v18h-17.5z"/><path class="st0" d="M441.9 341.5h11.9v12.2h-11.9z"/><path class="st1" d="M447.9 341.5v12.2"/><path class="st0" d="M569.7 338.6h17.5v18h-17.5z"/><path class="st0" d="M572.5 341.5h11.9v12.2h-11.9z"/><path class="st1" d="M578.5 341.5v12.2"/><path class="st0" d="M491.5 338.6h45.7v45.1h-45.7z"/><path class="st0" d="M494.5 341.6h39.7v39.1h-39.7z"/><path class="st0" d="M512.4 341.6h3.9v39.1h-3.9zM494.5 360.3h17.9v2h-17.9zM516.4 360.3h17.9v2h-17.9z"/><path class="st2" d="M503.1 341.6v18.7M525.7 341.6v18.7"/><path class="st0" d="M481.9 340.9h9.7v40.9h-9.7z"/><path class="st0" d="M483.7 342.8h7.9v35.8h-7.9z"/><path class="st0" d="M483.7 359.1h7.9v2.7h-7.9zM537.2 340.9h9.7v40.9h-9.7z"/><path class="st0" d="M537.2 342.8h7.9v35.8h-7.9z"/><path class="st0" d="M537.2 359.1h7.9v2.7h-7.9zM418.6 333h4.1v54.8h-4.1zM603.5 333h4.1v54.8h-4.1zM406.8 387.8h212.5l23.6 11.1h-242zM403.2 401.7h228.5v2.9H403.2zM564.8 429.3h9.7v40.9h-9.7z"/><path class="st0" d="M564.8 431.2h7.9V467h-7.9z"/><path class="st0" d="M564.8 447.6h7.9v2.7h-7.9zM529.4 429.3h9.7v40.9h-9.7z"/><path class="st0" d="M531.2 431.2h7.9V467h-7.9z"/><path class="st0" d="M531.2 447.6h7.9v2.7h-7.9zM539.1 426.9h25.7v45.8h-25.7z"/><path class="st0" d="M542 429.3h19.9v40.9H542z"/><path class="st0" d="M542 449h19.9v2.4H542z"/><path class="st1" d="M551.9 429.3V449"/><path class="st0" d="M371 430.2h9.7v40.9H371z"/><path class="st0" d="M371 432.1h7.9v35.8H371z"/><path class="st0" d="M371 448.4h7.9v2.7H371zM335.6 430.2h9.7v40.9h-9.7z"/><path class="st0" d="M337.5 432.1h7.9v35.8h-7.9z"/><path class="st0" d="M337.5 448.4h7.9v2.7h-7.9z"/><path class="st0" d="M345.3 427.7H371v45.8h-25.7z"/><path class="st0" d="M348.2 430.2h19.9v40.9h-19.9z"/><path class="st0" d="M348.2 449.8h19.9v2.4h-19.9z"/><path class="st1" d="M358.2 430.2v19.6"/><path class="st0" d="M291.2 430.2h9.7v40.9h-9.7z"/><path class="st0" d="M291.2 432.1h7.9v35.8h-7.9z"/><path class="st0" d="M291.2 448.4h7.9v2.7h-7.9zM255.8 430.2h9.7v40.9h-9.7z"/><path class="st0" d="M257.6 432.1h7.9v35.8h-7.9z"/><path class="st0" d="M257.6 448.4h7.9v2.7h-7.9zM265.5 427.7h25.7v45.8h-25.7z"/><path class="st0" d="M268.4 430.2h19.9v40.9h-19.9z"/><path class="st0" d="M268.4 449.8h19.9v2.4h-19.9z"/><path class="st1" d="M278.3 430.2v19.6"/><path class="st0" d="M424.9 415.4c0 .8-.7 1.5-1.5 1.5h-13.6c-.8 0-1.5-.7-1.5-1.5s.7-1.5 1.5-1.5h13.6c.8-.1 1.5.6 1.5 1.5zM422 416.9h-10.9l-2.8 52.8h16.5zM428.5 472c0 .8-.7 1.5-1.5 1.5h-20.8c-.8 0-1.5-.7-1.5-1.5v-.7c0-.8.7-1.5 1.5-1.5H427c.8 0 1.5.7 1.5 1.5v.7zM407.4 473.5h18.4v50.3h-18.4z"/><path class="st1" d="M407.4 473.5h12.4v6.3h-12.4z"/><path class="st1" d="M419.7 473.5h6v6.3h-6zM413.4 479.8h12.4v6.3h-12.4zM407.4 479.8h6v6.3h-6zM407.4 486.1h12.4v6.3h-12.4z"/><path class="st1" d="M419.7 486.1h6v6.3h-6z"/><path class="st1" d="M413.4 492.4h12.4v6.3h-12.4zM407.4 492.4h6v6.3h-6zM407.4 498.7h12.4v6.3h-12.4z"/><path class="st1" d="M419.7 498.7h6v6.3h-6z"/><path class="st1" d="M413.4 504.9h12.4v6.3h-12.4zM407.4 504.9h6v6.3h-6zM407.4 511.2h12.4v6.3h-12.4z"/><path class="st1" d="M419.7 511.2h6v6.3h-6zM413.4 517.5h12.4v6.3h-12.4zM407.4 517.5h6v6.3h-6z"/><path class="st0" d="M508.2 415.4c0 .8-.7 1.5-1.5 1.5h-13.6c-.8 0-1.5-.7-1.5-1.5s.7-1.5 1.5-1.5h13.6c.8-.1 1.5.6 1.5 1.5zM505.3 416.9h-10.8l-2.9 52.8h16.6zM511.8 472c0 .8-.7 1.5-1.5 1.5h-20.8c-.8 0-1.5-.7-1.5-1.5v-.7c0-.8.7-1.5 1.5-1.5h20.8c.8 0 1.5.7 1.5 1.5v.7zM490.7 473.5h18.4v50.3h-18.4z"/><path class="st1" d="M490.7 473.5h12.4v6.3h-12.4zM503.1 473.5h6v6.3h-6zM496.7 479.8h12.4v6.3h-12.4zM490.7 479.8h6v6.3h-6zM490.7 486.1h12.4v6.3h-12.4zM503.1 486.1h6v6.3h-6z"/><path class="st1" d="M496.7 492.4h12.4v6.3h-12.4zM490.7 492.4h6v6.3h-6zM490.7 498.7h12.4v6.3h-12.4zM503.1 498.7h6v6.3h-6z"/><path class="st1" d="M496.7 504.9h12.4v6.3h-12.4zM490.7 504.9h6v6.3h-6zM490.7 511.2h12.4v6.3h-12.4zM503.1 511.2h6v6.3h-6zM496.7 517.5h12.4v6.3h-12.4zM490.7 517.5h6v6.3h-6z"/><path class="st0" d="M630.7 415.4c0 .8-.7 1.5-1.5 1.5h-13.6c-.8 0-1.5-.7-1.5-1.5s.7-1.5 1.5-1.5h13.6c.8-.1 1.5.6 1.5 1.5zM627.8 416.9h-10.9l-2.8 52.8h16.5zM634.3 472c0 .8-.7 1.5-1.5 1.5H612c-.8 0-1.5-.7-1.5-1.5v-.7c0-.8.7-1.5 1.5-1.5h20.8c.8 0 1.5.7 1.5 1.5v.7zM613.2 473.5h18.4v50.3h-18.4z"/><path class="st1" d="M613.2 473.5h12.4v6.3h-12.4z"/><path class="st1" d="M625.5 473.5h6v6.3h-6zM619.2 479.8h12.4v6.3h-12.4zM613.2 479.8h6v6.3h-6zM613.2 486.1h12.4v6.3h-12.4z"/><path class="st1" d="M625.5 486.1h6v6.3h-6z"/><path class="st1" d="M619.2 492.4h12.4v6.3h-12.4zM613.2 492.4h6v6.3h-6zM613.2 498.7h12.4v6.3h-12.4z"/><path class="st1" d="M625.5 498.7h6v6.3h-6z"/><path class="st1" d="M619.2 504.9h12.4v6.3h-12.4zM613.2 504.9h6v6.3h-6zM613.2 511.2h12.4v6.3h-12.4z"/><path class="st1" d="M625.5 511.2h6v6.3h-6zM619.2 517.5h12.4v6.3h-12.4zM613.2 517.5h6v6.3h-6zM601.9 421.5h2.6v83.4h-2.6zM505.5 421.5h99l11.1-4.6H505.5M494.5 416.9H422l.2 4.6h72"/><path class="st0" d="M415.2 404.6v9.2M623.8 404.6v9.2M425.7 504.9h64.9v8.4h-64.9zM426.2 510.3h64.5M509.1 504.9h104.1v18.9H509.1zM425.7 513.3h64.9v8.4h-64.9zM426.2 518.7h64.5M425.7 521.7h64.9v8.4h-64.9zM426.2 527.1h64.5M442.2 432h32.1v66.5h-32.1z"/><path class="st0" d="M446.7 436h23v58.4h-23z"/><path class="st0" d="M456.2 436h3.9v58.4h-3.9z"/><circle class="st0" cx="464.9" cy="471.7" r="1.4"/><path class="st0" d="M460.1 463.5h9.5v3.5h-9.5zM446.7 463.5h9.5v3.5h-9.5zM425.7 479.8h16.5M474.2 479.8h16.5M212.9 421.5h3.8v89.7h-3.8z"/><path class="st0" d="M216.7 479.8h190.7v31.5H216.7zM225.2 479.8v31.4M234.8 479.8v31.4M244.5 479.8v31.4M254.1 479.8v31.4M263.8 479.8v31.4M273.4 479.8v31.4M283.1 479.8v31.4M292.7 479.8v31.4M302.4 479.8v31.4M312 479.8v31.4"/><g><path class="st0" d="M321.7 479.8v31.4"/></g><g><path class="st0" d="M331.3 479.8v31.4"/></g><g><path class="st0" d="M341 479.8v31.4"/></g><g><path class="st0" d="M350.6 479.8v31.4"/></g><g><path class="st0" d="M360.3 479.8v31.4"/></g><g><path class="st0" d="M369.9 479.8v31.4"/></g><g><path class="st0" d="M379.6 479.8v31.4"/></g><g><path class="st0" d="M389.2 479.8v31.4"/></g><g><path class="st0" d="M398.9 479.8v31.4"/></g><g><path class="st2" d="M514.7 504.9v18.9M524 504.9v18.9M533.3 504.9v18.9M542.6 504.9v18.9M552 504.9v18.9M561.3 504.9v18.9M570.6 504.9v18.9M579.9 504.9v18.9M589.3 504.9v18.9M598.6 504.9v18.9M607.9 504.9v18.9"/></g><g><circle class="st1" cx="514.4" cy="273.7" r="20.3"/><circle class="st1" cx="514.4" cy="273.7" r="15.5"/><path class="st1" d="M511.8 288.9c.8.1 1.7.2 2.6.2s1.7-.1 2.6-.2v-30.5c-.8-.1-1.7-.2-2.6-.2s-1.7.1-2.6.2v30.5zM498.9 273.7v1h12.8v-2.1H499c0 .4-.1.8-.1 1.1zM529.8 273.7v1H517v-2.1h12.8v1.1z"/></g><g><path class="st1" d="M442.5 305.8h144.2"/></g><g><path class="st1" d="M433.3 315v11.6"/></g><g><path class="st1" d="M446.7 305.8v20.8"/></g><g><path class="st1" d="M460.1 305.8v20.8"/></g><g><path class="st1" d="M473.5 305.8v20.8"/></g><g><path class="st1" d="M486.8 305.8v20.8"/></g><g><path class="st1" d="M500.2 305.8v20.8"/></g><g><path class="st1" d="M513.6 305.8v20.8"/></g><g><path class="st1" d="M527 305.8v20.8"/></g><g><path class="st1" d="M540.4 305.8v20.8"/></g><g><path class="st1" d="M553.7 305.8v20.8"/></g><g><path class="st1" d="M567.1 305.8v20.8"/></g><g><path class="st1" d="M580.5 305.8v20.8"/></g><g><path class="st1" d="M593.9 313v13.6"/></g><g><path class="st1" d="M446.7 301.7h135.9"/></g><g><path class="st0" d="M645.1 400.3c0 .8-.6 1.4-1.4 1.4H398.6c-.8 0-1.4-.6-1.4-1.4 0-.8.6-1.4 1.4-1.4h245.1c.8 0 1.4.6 1.4 1.4z"/></g><g><path class="st0" d="M415.2 407.8H195.7c-.8 0-1.4.6-1.4 1.4s.6 1.4 1.4 1.4h219.4v-2.8z"/></g><g><path class="st0" d="M199.6 410.6h215.6v3.2H199.6z"/></g><g><path class="st0" d="M410.9 421.5H206.8v-7.7"/></g><g><path class="st0" d="M199.6 407.8l47.5-52.4h50.1"/></g><g><path class="st0" d="M317.7 348.4h45.7v45.1h-45.7z"/><path class="st0" d="M320.7 351.3h39.7v39.1h-39.7z"/><path class="st0" d="M338.6 351.3h3.9v39.1h-3.9zM320.7 370.1h17.9v2h-17.9zM342.5 370.1h17.9v2h-17.9z"/><path class="st2" d="M329.3 351.3v18.8M351.8 351.3v18.8"/><g><path class="st0" d="M308 350.6h9.7v40.9H308z"/><path class="st0" d="M309.8 352.5h7.9v35.8h-7.9z"/><path class="st0" d="M309.8 368.9h7.9v2.7h-7.9z"/></g><g><path class="st0" d="M363.4 350.6h9.7v40.9h-9.7z"/><path class="st0" d="M363.4 352.5h7.9v35.8h-7.9z"/><path class="st0" d="M363.4 368.9h7.9v2.7h-7.9z"/></g><g><path class="st0" d="M297.3 341.7h3.7v51.8h-3.7zM380 341.7h3.7v51.8H380z"/></g></g><g><path class="st1" d="M292.7 337.4h95.6v4.2h-95.6z"/></g><g><path class="st2" d="M366.3 309.8h-51.7l-26.3 24.1v3.5h104.4v-3.5z"/></g><g><path class="st2" d="M383.7 355.4h34.9"/></g><g><path class="st2" d="M288.3 333.9h104.4"/></g><g><path class="st2" d="M255.8 355.4l33.4-38.1h17.2"/></g><g><path class="st2" d="M374.5 317.3h34.6"/></g><g><path class="st2" d="M637.3 523.9H490.7v6.1h146.7c.9 0 1.7-.7 1.7-1.6v-2.9c-.1-.8-.8-1.6-1.8-1.6z"/></g><g><path class="st2" d="M400.5 523.9h25.1v6.1h-25.1c-.9 0-1.7-.7-1.7-1.6v-2.9c.1-.8.8-1.6 1.7-1.6z"/></g><g><path class="st0" d="M631.5 530.1v39.6H212.9v-52.2"/></g><g><path class="st2" d="M407.4 511.2H207.8c-.9 0-1.7.7-1.7 1.7v3c0 .9.7 1.7 1.7 1.7h199.6v-6.4z"/></g><g class="st3"><defs><path id="SVGID_1_" d="M212.9 517.5v52.1h418.7V530H401.3c-2.4 0-2.4-1.1-2.4-2.5v-2c0-1.1.6-1.6 2.5-1.6h6v-6.4H212.9z"/></defs><clipPath id="SVGID_2_"><use xlink:href="#SVGID_1_" overflow="visible"/></clipPath><defs><path id="SVGID_3_" d="M212.9 517.5v52.1h418.7V530H401.3c-2.4 0-2.4-1.1-2.4-2.5v-2c0-1.1.6-1.6 2.5-1.6h6v-6.4H212.9z"/></defs><clipPath id="SVGID_4_"><use xlink:href="#SVGID_3_" overflow="visible"/></clipPath><g class="st4"><path class="st0" d="M182.8 569.7l30.5-52.2M219.8 517.5l-30.6 52.2M226.2 517.5l-30.5 52.2M232.6 517.5l-30.5 52.2M239 517.5l-30.5 52.2M245.4 517.5l-30.5 52.2M251.8 517.5l-30.5 52.2M258.2 517.5l-30.5 52.2M264.6 517.5l-30.5 52.2M271 517.5l-30.5 52.2M277.5 517.5l-30.6 52.2M283.9 517.5l-30.5 52.2M290.3 517.5l-30.5 52.2M296.7 517.5l-30.5 52.2M303.1 517.5l-30.5 52.2M309.5 517.5L279 569.7M315.9 517.5l-30.5 52.2M322.3 517.5l-30.5 52.2M328.7 517.5l-30.5 52.2M335.2 517.5l-30.6 52.2M341.6 517.5l-30.5 52.2M348 517.5l-30.5 52.2M354.4 517.5l-30.5 52.2M360.8 517.5l-30.5 52.2M367.2 517.5l-30.5 52.2M373.6 517.5l-30.5 52.2M380 517.5l-30.5 52.2M386.4 517.5l-30.5 52.2M392.9 517.5l-30.5 52.2M399.3 517.5l-30.5 52.2M405.7 517.5l-30.5 52.2M412.1 517.5l-30.5 52.2M418.5 517.5L388 569.7M424.9 517.5l-30.5 52.2M431.3 517.5l-30.5 52.2M437.7 517.5l-30.5 52.2M444.1 517.5l-30.5 52.2M450.6 517.5l-30.5 52.2M457 517.5l-30.5 52.2M463.4 517.5l-30.5 52.2M469.8 517.5l-30.5 52.2M476.2 517.5l-30.5 52.2M482.6 517.5l-30.5 52.2M489 517.5l-30.5 52.2M495.4 517.5l-30.5 52.2M501.8 517.5l-30.5 52.2M508.3 517.5l-30.5 52.2M514.7 517.5l-30.5 52.2M521.1 517.5l-30.5 52.2M527.5 517.5L497 569.7M533.9 517.5l-30.5 52.2M540.3 517.5l-30.5 52.2M546.7 517.5l-30.5 52.2M553.1 517.5l-30.5 52.2M559.5 517.5L529 569.7M566 517.5l-30.5 52.2M572.4 517.5l-30.5 52.2M578.8 517.5l-30.5 52.2M585.2 517.5l-30.5 52.2M591.6 517.5l-30.5 52.2M598 517.5l-30.5 52.2M604.4 517.5l-30.5 52.2M610.8 517.5l-30.5 52.2M617.2 517.5l-30.5 52.2M623.7 517.5l-30.5 52.2M630.1 517.5l-30.5 52.2M636.5 517.5L606 569.7M642.9 517.5l-30.5 52.2M649.3 517.5l-30.5 52.2M655.7 517.5l-30.5 52.2"/></g><g><defs><path id="SVGID_5_" d="M212.9 517.5v52.1h418.7V530H401.3c-2.4 0-2.4-1.1-2.4-2.5v-2c0-1.1.6-1.6 2.5-1.6h6v-6.4H212.9z"/></defs><clipPath id="SVGID_6_"><use xlink:href="#SVGID_5_" overflow="visible"/></clipPath></g></g><g><path class="st0" d="M213.4 606.3H632"/></g><g><path class="st5" d="M514.6 211.8h.5"/><path class="st6" d="M519 211.8h136"/><path class="st5" d="M656.9 211.8h.5"/></g><g><path class="st5" d="M624 326h.5"/><path class="st7" d="M628.5 326h67.9"/><path class="st5" d="M698.4 326h.5"/></g><g><path class="st5" d="M184.7 317.3h.5"/><path class="st8" d="M189.3 317.3h105.1"/><path class="st5" d="M296.5 317.3h.5"/></g><g><path class="st5" d="M146.2 407.8h.5"/><path class="st9" d="M150.5 407.8h41.4"/><path class="st5" d="M193.8 407.8h.5"/></g><g><path class="st5" d="M184.7 583.2h.5"/><path class="st10" d="M189.2 583.2h23.1"/><path class="st5" d="M214.3 583.2h.5"/></g><g><path class="st5" d="M632 583.2h.5"/><path class="st11" d="M636.9 583.2h19.4"/><path class="st5" d="M658.4 583.2h.5"/></g><g><path class="st5" d="M623.5 387.8h.5"/><path class="st12" d="M628 387.8h68.4"/><path class="st5" d="M698.4 387.8h.5"/></g><g><path class="st5" d="M623.5 416.9h.5"/><path class="st12" d="M628 416.9h68.4"/><path class="st5" d="M698.4 416.9h.5"/></g><g><path class="st5" d="M623.5 530.1h.5"/><path class="st13" d="M628 530.1h92.6"/><path class="st5" d="M722.6 530.1h.5"/></g><g><path class="st5" d="M623.5 473.6h.5"/><path class="st13" d="M628 473.6h92.6"/><path class="st5" d="M722.6 473.6h.5"/></g><g><path class="st0" d="M672.1 211.5v371.7"/></g><g><path class="st0" d="M662.5 211.5h19.1"/></g><g><path class="st0" d="M662.5 583.2h19.1"/></g><g><path class="st0" d="M170.7 317.3v265.9"/></g><g><path class="st0" d="M161.2 317.3h19.1"/></g><g><path class="st0" d="M161.2 583.2h19.1"/></g><g><path class="st0" d="M213.4 615.8v-19"/></g><g><path class="st0" d="M632 615.8v-19"/></g><g><path class="st5" d="M690.4 329.1v55.6"/><path class="st14" d="M696.8 330l-6.4-4-6.4 4v.1h12.8zM696.8 383.8l-6.4 4-6.4-4v-.1h12.8z"/></g><g><path class="st5" d="M297.8 621.7h-38.9"/><path class="st14" d="M296.8 628.2l4.1-6.5-4.1-6.4v12.9zM259.8 628.2l-4-6.5 4-6.4h.1v12.9z"/></g><g><path class="st5" d="M690.4 420v107"/><path class="st14" d="M696.8 421l-6.4-4.1-6.4 4.1h12.8zM696.8 526l-6.4 4.1-6.4-4.1h12.8z"/></g><g><path class="st5" d="M711.4 476.6V527"/><path class="st14" d="M717.8 477.6l-6.4-4.1-6.4 4.1h12.8zM717.8 526l-6.4 4.1-6.4-4.1h12.8z"/></g><g><path class="st5" d="M488.4 621.7h-59.5"/><path class="st14" d="M487.5 628.2l4-6.5-4-6.4h-.1v12.9zM429.8 628.2l-4.1-6.5 4.1-6.4v12.9z"/></g><g><path class="st5" d="M419.7 256.6v34.2"/><path class="st14" d="M426.2 257.5l-6.5-4-6.4 4v.1h12.9zM426.2 289.8l-6.5 4.1-6.4-4.1h12.9z"/></g><g><path class="st5" d="M388.7 243.7h-97.3"/><path class="st14" d="M387.8 250.2l4-6.5-4-6.4h-.1v12.9zM292.4 250.2l-4.1-6.5 4.1-6.4v12.9z"/></g><g><path class="st5" d="M364.2 218.3h-46.3"/><path class="st14" d="M363.2 224.8l4.1-6.5-4.1-6.4v12.9zM318.9 224.8l-4.1-6.5 4.1-6.4v12.9z"/></g><g><path class="st5" d="M543.8 174.3h-58.4"/><path class="st14" d="M542.9 180.7l4-6.4-4-6.4h-.1v12.8zM486.4 180.7l-4.1-6.4 4.1-6.4v12.8z"/></g><g><path class="st5" d="M154.9 359.7v45.7"/><path class="st14" d="M161.3 360.7l-6.4-4.1-6.5 4.1h12.9zM161.3 404.5l-6.4 4.1-6.5-4.1v-.1h12.9z"/></g><g><path class="st5" d="M154.9 424.6v83.5"/><path class="st14" d="M161.3 425.5l-6.4-4-6.5 4v.1h12.9zM161.3 507.2l-6.4 4-6.5-4v-.1h12.9z"/></g><g><path class="st5" d="M128.3 482.9v25.2"/><path class="st14" d="M134.7 483.8l-6.4-4-6.5 4v.1h12.9zM134.7 507.2l-6.4 4-6.5-4v-.1h12.9z"/></g><g><path class="st5" d="M154.9 520.6v46"/><path class="st14" d="M161.3 521.6l-6.4-4.1-6.5 4.1h12.9zM161.3 565.6l-6.4 4.1-6.5-4.1h12.9z"/></g><g><path class="st15" d="M624 247.9v111.3"/></g><g><path class="st5" d="M640.7 306.5l-.3-.4"/><path class="st16" d="M637.6 303.3l-75.4-74.9"/><path class="st5" d="M560.8 227l-.3-.4"/><path class="st14" d="M635.5 310.4l7.4-1.7 1.7-7.5h-.1l-9 9.1zM556.6 231.9l1.6-7.5 7.5-1.7v.1l-9.1 9.1z"/></g><g><path class="st0" d="M623.5 259.3c-8.5 0-16.2 3.7-21.5 9.5"/></g><g><path class="st15" d="M514.4 253.5H407.7"/></g><g><path class="st15" d="M512.4 293.9H407.7"/></g><g><path class="st15" d="M288.3 337.4V232.3"/></g><g><path class="st15" d="M314.8 309.6V204.4"/></g><g><path class="st15" d="M366.4 309.6V204.4"/></g><g><path class="st15" d="M247.1 355.4V210.3"/></g><g><path class="st15" d="M199.6 408V258.9"/></g><g><path class="st15" d="M391.8 337.4V232.3"/></g><g><path class="st17" d="M184.5 274.3l83.3-85.2"/><path class="st14" d="M180.6 269.1l1.7 7.4 7.5 1.6-9.2-9zM262.6 185.3l7.4 1.6 1.8 7.4h-.1l-9.2-9z"/></g><g><path class="st5" d="M247.1 355.4h-.5"/><path class="st18" d="M242.6 355.4h-93.9"/><path class="st5" d="M146.7 355.4h-.5"/></g><g><path class="st5" d="M206.8 421.5h-.5"/><path class="st19" d="M202.3 421.5h-53.6"/><path class="st5" d="M146.7 421.5h-.5"/></g><g><path class="st5" d="M210.8 511.2h-.5"/><path class="st20" d="M206.3 511.2h-87.9"/><path class="st5" d="M116.4 511.2h-.5"/></g><g><path class="st5" d="M210.8 479.8h-.5"/><path class="st20" d="M206.3 479.8h-87.9"/><path class="st5" d="M116.4 479.8h-.5"/></g><g><path class="st5" d="M210.8 517.5h-.5"/><path class="st21" d="M206.2 517.5h-64.7"/><path class="st5" d="M139.5 517.5h-.5"/></g><g><path class="st5" d="M210.8 569.7h-.5"/><path class="st21" d="M206.2 569.7h-64.7"/><path class="st5" d="M139.5 569.7h-.5"/></g><g><path class="st5" d="M255.8 470.3v.5"/><path class="st22" d="M255.8 474.8v158.4"/><path class="st5" d="M255.8 635.2v.5"/></g><g><path class="st5" d="M300.9 470.3v.5"/><path class="st22" d="M300.9 474.8v158.4"/><path class="st5" d="M300.9 635.2v.5"/></g><g><path class="st5" d="M481.9 340.9v-.5"/><path class="st23" d="M481.9 336.3V166.8"/><path class="st5" d="M481.9 164.8v-.5"/></g><g><path class="st5" d="M546.9 340.9v-.5"/><path class="st23" d="M546.9 336.3V166.8"/><path class="st5" d="M546.9 164.8v-.5"/></g><g><path class="st15" d="M425.7 528.6v107.1"/></g><g><path class="st15" d="M490.7 528.6v107.1"/></g><g><path class="st5" d="M610 621.7h-97.1"/><path class="st14" d="M609.1 628.2l4.1-6.5-4.1-6.4v12.9zM513.8 628.2l-4.1-6.5 4.1-6.4v12.9z"/></g><g><path class="st15" d="M509.1 521.6v114.1"/></g><g><path class="st15" d="M613.2 521.6v114.1"/></g><g><path class="st0" d="M247.1 253.3c-11.6 0-22-4.7-29.6-12.3"/></g></svg>