<svg viewBox="0 0 650 500" xmlns="http://www.w3.org/2000/svg"><g fill="#fff"><path d="M133.484 319.067c.335.682 2.963.733 7.225.024 4.261-.71 10.15-2.21 16.685-4.706a106.61 106.61 0 0 0 16.711-8.127c4.798-2.885 8.99-5.957 12.46-8.942 3.472-2.987 6.227-5.885 8.268-8.424 2.041-2.54 3.375-4.72 4.053-6.313.68-1.593.713-2.596.103-2.852-.609-.256-1.802.255-3.48 1.339-1.68 1.083-3.853 2.737-6.503 4.75-2.65 2.012-5.781 4.383-9.368 6.909a199.858 199.858 0 0 1-12.045 7.862c-5.138 3.09-10.218 5.81-14.852 8.118-5.656 2.82-10.638 5.044-14.124 6.753-3.485 1.708-5.467 2.926-5.133 3.609z"/><path d="M136.042 319.574c.002.713 2.29 1.325 6.124 2.004 3.833.678 9.219 1.448 15.46 2.592 5.114.937 10.801 2.136 16.702 3.662a230.835 230.835 0 0 1 14.104 4.145c4.28 1.405 8.089 2.782 11.316 3.954 3.227 1.172 5.874 2.137 7.835 2.703 1.96.567 3.24.731 3.668.34.428-.392-.04-1.306-1.337-2.596s-3.43-2.953-6.346-4.766c-2.918-1.813-6.623-3.771-11.003-5.628-4.38-1.857-9.433-3.607-14.943-5.032a115.888 115.888 0 0 0-18.353-3.194c-6.88-.621-12.752-.493-16.837-.056-4.085.439-6.392 1.159-6.39 1.872z"/><path d="M200.013 284.257c-1.152-.202-3.017 1.013-4.968 3.401-1.95 2.388-3.942 5.963-5.03 10.368-.89 3.614-1.148 7.78-.417 12.187.627 3.79 1.921 7.392 3.59 10.608a41.72 41.72 0 0 0 5.752 8.354c2.043 2.305 4.082 4.086 5.774 5.247 1.69 1.163 3.026 1.708 3.789 1.555.763-.153.887-.986.566-2.352-.319-1.365-1.073-3.265-1.986-5.58-.913-2.314-1.983-5.045-2.952-8.073-.968-3.027-1.832-6.352-2.41-9.842a64.39 64.39 0 0 1-.841-11.303c.049-4.161.441-7.69.51-10.238.07-2.55-.226-4.129-1.377-4.331z"/><path d="M220.628 298.546c-19.474 6.479-51.779 15.235 86.929-3.57s145.04-15.363 180.855-29.663c35.818-14.3 21.14-32.503 10.207-42.539-10.933-10.035-28.222-34.948-37.309-24.503-9.087 10.446 74.864 40.603 14.517 60.917-60.348 20.313-91.684 17.574-127.398 21.954-35.71 4.38-108.325 10.924-127.808 17.403z"/></g></svg>